
<svg xmlns="http://www.w3.org/2000/svg" version="1.1" xmlns:xlink="http://www.w3.org/1999/xlink" preserveAspectRatio="none" x="0px" y="0px" width="550px" height="400px" viewBox="0 0 550 400">
<defs>
<g id="Layer0_0_FILL">
<path fill="#B7D55D" stroke="none" d="
M 240.15 245.7
Q 236.65 245.05 231.75 243.75 230.45 243.4 229.05 243
L 226.55 242.25 227.4 240.6
Q 222.65 227.2 216.7 224.45 210.7 221.7 206.05 222.05 201.4 222.35 196.7 224.05 191.95 225.75 185.1 225.75
L 176.9 222.1
Q 179.1 232.9 183.95 240.05 186.4 243.6 197.8 250.45 209.15 257.3 218.05 250.8 222.2 247.7 223.75 246.6 226.2 247.55 230.25 248.55 231 248.75 231.75 248.9 235.7 249.8 239.5 250.35 243.1 250.8 242 248.3
L 240.15 245.7 Z"/>

<path fill="#91C419" stroke="none" d="
M 310.45 228.75
L 309.85 228.65 309.65 228.65
Q 309.55 229.2 309 229.4
L 308.8 229.95 308.45 229.8 307.95 229.8 307.3 230.7 307.3 231.1 306.7 231.2 306.25 232.4 306.35 232.85 305.85 234 305.85 234.2 306.15 234.2 305.95 235.7
Q 306.05 236.65 306.8 237.1
L 306.7 237.4 307.1 238.25 307.65 238.5 307.65 238.7 309 239.8 309.1 239.65 309.1 238.7 309.4 238.8 309.55 239.15 310.15 239.15 310.25 239.55 310.9 239.55 311 239 311.2 238.9 310.7 238.8 310.7 238.6 311 238.6 310.8 237.95 311.95 238.15 312.15 238.15 311.2 237.75 310.7 237.95 309 237.4 309 237.2 308.7 237.1 308.7 236.75 308.45 236.9 308.25 236.9
Q 307.95 236.55 307.95 235.9
L 307.75 235.9 307.5 235.4 307.2 235.15
Q 307.3 234.5 307 234.1
L 307.1 233.8 308.55 234 309.55 234 309.65 233.15 309.95 233.15 310.05 233.8 310.7 233.8 311.5 233.05 311.4 232.4 311.65 231.45 311.95 231.3 311.65 230.35 311.85 229.95 311.75 229.5 310.8 229.3 310.45 228.75
M 306.6 231.75
L 307 231.85 307 232.2 306.5 232.05 306.6 231.75
M 308.45 230.9
L 308.8 231 309.3 231
Q 309.75 230.9 309.65 230.35
L 310.05 230.35 310.8 231.1 310.6 231.75 308.9 232.2 308.05 232.05 308.45 230.9
M 306.9 234.65
L 306.6 234.65 306.6 234.2 306.9 234.2 306.9 234.65
M 310.15 229.7
L 309.95 229.7 309.95 229.5 310.15 229.5 310.15 229.7
M 310.9 233.35
L 310.7 233.35 310.8 233.05 311 233.05 310.9 233.35
M 297.15 228.75
L 297.25 227.9
Q 297.35 227.15 297 226.5
L 296.6 226.3 296.1 225.45 295.75 225.45 295.35 225.95 296.2 227.35
Q 295.65 229.5 295.55 231.75
L 295.55 232.85 295.85 232.85 295.45 235.4 295.55 235.8 294.9 237.65 294.6 237.85 294.6 238.05 294.8 238.05 294.9 238.35
Q 295.75 238.15 296.2 238.8
L 298.1 238.35 298.1 238.6 299.15 238.35 299.45 237 300 236.9 300.85 237.3 300.75 236.9 300.75 236.55 301.15 236.65 301.45 235.8 302.2 235.5 302.1 234.5 301.8 234.45 301.8 234.1 301.45 234 301.35 232.7 300.85 232.6 300.65 232.05 299.35 231.65 299.05 231.65 299.05 231.95 298.8 231.85 298.3 231.85 298.3 231.65 297.65 231.85 297.35 231.75
Q 297.35 230.35 296.9 229.1
L 297.15 228.75
M 297.9 233.65
L 297.75 233.35 297.75 233.15 298.2 232.9 298.4 232.9 298.4 232.6 299.35 232.6 299.45 232.4 299.8 232.4 300.2 233.35
Q 300.270703125 234.1625 300 234.85
L 300.1 234.85 300.1 235.15 299.85 235.15
Q 299.7818359375 235.27734375 299.7 235.4 298.6 236.3 298 237.65
L 297.45 237.75
Q 297.75 235.7 297.9 233.65
M 297.75 232.6
L 298 232.85 297.75 232.85 297.75 232.6
M 301.15 234.95
L 300.85 234.85 300.95 234.5 301.15 234.5 301.15 234.95
M 301.45 235.05
L 301.8 235.05 301.8 235.4 301.35 235.4 301.45 235.05
M 301.55 234.1
L 301.55 234.45 301.25 234.45 301.25 234.1 301.55 234.1
M 134.15 154.35
L 134.05 154 132.75 153.5 131.25 153.6 131.15 154.35 130.65 154.45 130.65 154.8 130.05 154.8 129.95 155.4 130.3 155.5 130.55 156.35 130.55 156.55 130.3 156.45 129.5 156.55 129.6 157.05 130.05 157.25 130.3 158.2 131.8 158 133.1 158.2 133.45 158.8 134.05 158.7 134.05 158.45 134.25 158.45 134.25 158.2 134.6 158.2 134.6 158.7 134.25 158.7 134.15 158.95 134.25 159.4 133.8 160.9
Q 132.75 161.85 131.45 162.2
L 131.35 162.55 130.9 162.55 130.8 163.05 130.9 163.75 131.6 164 132.5 163.5 132.75 163.05 133.7 162.55 134.05 161.85 134.5 161.75 135.1 160.55 134.95 159.85
Q 135.3 159.05 135.2 157.85
L 135.1 158.1 134.6 157.85 134.15 157.85 134.15 157.5 133.9 157.5 133.9 157.85 133.6 157.85 133.6 157.4 133.35 157.5 133.1 157.5 133.1 157.15 131.45 157.15 131.35 156.7 130.8 156.7 130.8 156.35 131.7 156.1 132.05 155.05 132.75 154.55 133.35 154.7 134.15 154.35
M 130.3 157.05
L 129.85 157.05 129.85 156.7 130.3 157.05
M 156.75 157.25
L 156.05 159.75 156.05 160.45 156.3 160.55 156.3 160.8 156.05 160.8 155.8 161.5 156.05 162.1
Q 155.95 162.8 156.4 163.15
L 156.05 164
Q 156.05 164.8 156.5 165.25
L 156.75 165.25 156.85 164.9 157.2 165.05 157.7 164.8
Q 158.25 164.8 158.5 164.35
L 158.4 163.85 158.6 163.25 158.4 163.5 158.15 163.5 158.5 162.9
Q 158.4 162.1 158.15 161.25
L 157.9 161.25 157.8 160 158.15 159.5 157.9 158.3 158.05 158 157.6 157.15 156.75 157.25
M 157.6 164.35
L 157.6 164.6 156.75 164.35 156.75 164.1 157.6 164.35
M 155.25 152.55
L 155.25 152.1 155 152.1 155 152.55 155.25 152.55
M 157 153.15
L 157.6 152.8 157 152.8 156.5 152
Q 155.8 152 155.45 152.55
L 155.25 152.55 155.25 153.3 155.45 153.3 155.6 153.75 155.95 153.6 156.65 154 157 153.15
M 98.5 163.8
L 98.5 163.1 98.15 163.1 98.5 163.8
M 95 151.3
L 95.25 151.15 95.15 150.45 95 150.7 95 151.3
M 96.5 154.6
L 96.5 153.2 96.2 153.05 96.2 152.6 95.95 152.6 95.95 152.35 95.25 152.1 95.15 151.75 94.55 151.9 94.2 152.7 94.2 153.05 94.9 153.75 94.8 154.25 93.95 154.7 93.15 154.35
Q 91.85 154.35 90.8 155.1
L 90.8 155.9
Q 91.45 156.2 91.85 156.85
L 93 156.75 93 156.35 93.95 156.15 94.4 156.15 94.2 156.5 94.2 156.75 94.55 156.75 94.55 157.3 94.05 157.7 94.2 157.9 94.05 158.15
Q 93.95 158.75 94.4 159.1
L 94.05 159.95
Q 94.1 161.25 94.2 162.55
L 94.05 163.1
Q 94.05 164.2 94.55 165.15
L 95.25 164.75 95.35 164.55 95.7 164.75 97.35 164.3 97.45 163.8 97.9 163.8 97.6 163.25 96.5 163.35 96.2 163.1 95.6 163.1 95.95 162.55 95.8 162.15 95.8 161.95 96.05 161.95 96.2 161.6 95.6 161.35 95.8 160.75 95.8 159.95 95.35 159.55 95.35 159.1 95.95 158.85
Q 95.95 157.8 96.3 156.85
L 96.3 156.05 97.2 156.15 97.35 156.85 97.6 156.85 97.7 157.3 97.8 156.85 98.6 156.95 99.2 156.95 99.4 156.6
Q 99.3 155.8 99.9 155.3
L 99.9 155.1 99.2 155.4 99.3 155.8 99.1 156.35 98.85 156.35 98.85 154.7 97.6 154.7 97.6 154.95 96.5 154.6
M 97.8 155.8
L 98.15 155.4 98.15 155.1 98.6 155.3 98.25 155.8 97.8 155.8
M 97.9 156.15
L 98.25 156.15 98.25 156.6 97.9 156.6 97.9 156.15
M 105.75 151.4
L 105.85 151.75 105.5 153.5 105.65 154.2
Q 105.75 155.85 105.15 157.25
L 105.3 157.75 106 158 106 158.3 105.4 158.45
Q 105.05 160.45 104.35 162.35
L 104.45 162.8 105.3 163.25 105.3 163.5 106 163.75 106.1 163.25
Q 106.55 162.8 107.15 162.9
L 107.05 162.55
Q 107.15 161.5 107.6 160.7
L 107.85 160.7 107.85 160.3 109.25 159.65 109.95 159.75 109.6 161.65 109.85 163.65 110.1 163.65 109.75 164.35
Q 109.75 164.9 110.2 164.9
L 110.2 165.15 110.55 165.25 111 166.35 111.15 165.5 111.7 165.75 111.95 165.25 111.95 164.9 111.6 164.8 111 163.5 111.15 162.8 111 162.45 111.25 161.4
Q 111.5 160 110.9 158.8
L 110.1 159.25 109.6 159.25 109.6 158.95 109.15 159.05 108.1 158.55 108.35 158.1 107.6 158 107.3 156.2 107.4 155.75
Q 107.3 153.3 106.35 151.15
L 105.75 151.4
M 107.15 156.7
L 106.9 156.7 106.9 156.45 107.15 156.45 107.15 156.7
M 120.75 157.25
L 120.05 159.75 120.05 160.45 120.3 160.55 120.3 160.8 120.05 160.8 119.8 161.5 120.05 162.1
Q 119.95 162.8 120.4 163.15
L 120.05 164
Q 120.05 164.8 120.5 165.25
L 120.75 165.25 120.85 164.9 121.2 165.05 121.7 164.8
Q 122.25 164.8 122.5 164.35
L 122.4 163.85 122.6 163.25 122.4 163.5 122.15 163.5 122.5 162.9
Q 122.4 162.1 122.15 161.25
L 121.9 161.25 121.8 160 122.15 159.5 121.9 158.3 122.05 158 121.6 157.15 120.75 157.25
M 120.75 164.35
L 120.75 164.1 121.6 164.35 121.6 164.6 120.75 164.35
M 119.25 152.55
L 119.25 152.1 119 152.1 119 152.55 119.25 152.55
M 121 152.8
L 120.5 152
Q 119.8 152 119.45 152.55
L 119.25 152.55 119.25 153.3 119.45 153.3 119.6 153.75 119.95 153.6 120.65 154 121 153.15 121.6 152.8 121 152.8
M 281 169.95
L 280.25 171.85
Q 284.7 173.55 288.5 173.45 290.35 173.35 295.55 170.8 300.75 168.25 300.45 163.4 300.25 161.2 300.25 160.35 301.45 159.35 302.2 158.7 302.95 158 303.6 157.35 304.25 156.7 305.35 155.45 306.3 154.2 305.15 154
L 303.8 154.1
Q 302.7 155.25 301.05 156.75 300.65 157.15 300.2 157.55
L 299.3 158.3 298.9 157.6
Q 293.1 157.3 291.15 157.6 289.15 157.9 287.55 159.45 285.95 160.95 283.65 162.7 281.3 164.4 281 169.95
M 220.25 166.7
L 220.6 166.45 220.25 165.05 220.15 166.2 220.25 166.7
M 205.7 165.85
L 205.9 165.85 205.9 165.35 205.7 165.35 205.7 165.85
M 206.05 153.55
L 206.4 153.45 206.4 153.2 205.9 153.05 205.9 152.6 204.75 153.05 204.4 153.9 204.5 154.35 204.3 154.95 204.5 155.4 204.2 156.35 204.4 156.95 204.2 157.45 204.2 157.9 204.65 158.25 204.3 158.75 204.2 159.35 204.3 159.8 204.2 160.9
Q 203.95 161.7 204.5 162.15
L 204.5 162.4 204.05 162.4 204.2 162.9 204.05 163.5 204.4 164.3 204.5 165.15 204.75 165 205.2 165 205.2 164.65 205.8 164.65 206.25 164.05
Q 205.9 163 205.9 161.7
L 206.05 161 205.8 160.15 206.05 159.7 205.7 156.05 205.9 155.3 205.8 154.85 206.05 153.55
M 221.55 154.55
L 221.3 154.45 221.05 153.6 220.8 153.6 220.5 154.7 219.9 154.8 219.65 155.6 219.1 155.4 218.95 155.75 218.5 156 218.15 156.7 217.9 156.7
Q 217.8 157.75 217.2 158.55 215.95 158.55 215.6 157.5
L 215.15 157.5 215.15 157.15 213.6 155.4 213.15 155.15 212.8 155.25
Q 212.7 156.2 213.4 156.7 213.6 157.75 214.05 158.7
L 214.4 158.8 214.8 159.65 214.65 160.55
Q 214.05 160.45 213.75 160.9
L 213.25 162.2 212.7 162.1 211.5 163.05 211.5 163.25
Q 212.45 163.85 213.6 164
L 213.6 164.2 214.3 163.85 214.55 162.9 215 162.9 216.5 161.15 217.1 161.15 217.2 162 217.9 162.7 218.15 163.5 218.95 163.65 218.95 164 219.3 164 219.65 163.65 219.55 163.25 219.9 162.7 219.8 162.45 219.8 162.2 219.1 161.5 219.2 161.15 219.2 160.9 218.95 160.8 217.8 161.15 217.6 161.15 217.9 160.1 217.9 159.5 218.5 158.95 218.4 158.45 218.4 157.85 218.85 157.85 218.95 158.2 219.2 158.2 219.2 157.65 219.55 157.5 219.65 157.15 220.15 157.15
Q 220.5 156.2 221.3 155.6
L 221.55 154.95 221.55 154.55
M 215.15 158.55
L 215.15 158.1 215.45 158.1 215.45 158.55 215.15 158.55
M 218.6 157.5
L 218.75 157.15 219.1 157.5 218.6 157.5
M 242.15 154.35
L 242.05 154 240.75 153.5 239.25 153.6 239.15 154.35 238.65 154.45 238.65 154.8 238.05 154.8 237.95 155.4 238.3 155.5 238.55 156.35 238.55 156.55 238.3 156.45 237.5 156.55 237.6 157.05 238.05 157.25 238.3 158.2 239.8 158 241.1 158.2 241.45 158.8 242.05 158.7 242.05 158.45 242.25 158.45 242.25 158.2 242.6 158.2 242.6 158.7 242.25 158.7 242.15 158.95 242.25 159.4 241.8 160.9
Q 240.75 161.85 239.45 162.2
L 239.35 162.55 238.9 162.55 238.8 163.05 238.9 163.75 239.6 164 240.5 163.5 240.75 163.05 241.7 162.55 242.05 161.85 242.5 161.75 243.1 160.55 242.95 159.85
Q 243.3 159.05 243.2 157.85
L 243.1 158.1 242.6 157.85 242.15 157.85 242.15 157.5 241.9 157.5 241.9 157.85 241.6 157.85 241.6 157.4 241.35 157.5 241.1 157.5 241.1 157.15 239.45 157.15 239.35 156.7 238.8 156.7 238.8 156.35 239.7 156.1 240.05 155.05 240.75 154.55 241.35 154.7 242.15 154.35
M 237.85 157.05
L 237.85 156.7 238.3 157.05 237.85 157.05
M 170.15 154.35
L 170.05 154 168.75 153.5 167.25 153.6 167.15 154.35 166.65 154.45 166.65 154.8 166.05 154.8 165.95 155.4 166.3 155.5 166.55 156.35 166.55 156.55 166.3 156.45 165.5 156.55 165.6 157.05 166.05 157.25 166.3 158.2 167.8 158 169.1 158.2 169.45 158.8 170.05 158.7 170.05 158.45 170.25 158.45 170.25 158.2 170.6 158.2 170.6 158.7 170.25 158.7 170.15 158.95 170.25 159.4 169.8 160.9
Q 168.75 161.85 167.45 162.2
L 167.35 162.55 166.9 162.55 166.8 163.05 166.9 163.75 167.6 164 168.5 163.5 168.75 163.05 169.7 162.55 170.05 161.85 170.5 161.75 171.1 160.55 170.95 159.85
Q 171.3 159.05 171.2 157.85
L 171.1 158.1 170.6 157.85 170.15 157.85 170.15 157.5 169.9 157.5 169.9 157.85 169.6 157.85 169.6 157.4 169.35 157.5 169.1 157.5 169.1 157.15 167.45 157.15 167.35 156.7 166.8 156.7 166.8 156.35 167.7 156.1 168.05 155.05 168.75 154.55 169.35 154.7 170.15 154.35
M 166.3 157.05
L 165.85 157.05 165.85 156.7 166.3 157.05
M 193.9 165.35
L 193.7 165.35 193.7 165.85 193.9 165.85 193.9 165.35
M 192.4 153.9
L 192.5 154.35 192.3 154.95 192.5 155.4 192.2 156.35 192.4 156.95 192.2 157.45 192.2 157.9 192.65 158.25 192.3 158.75 192.2 159.35 192.3 159.8 192.2 160.9
Q 191.95 161.7 192.5 162.15
L 192.5 162.4 192.05 162.4 192.2 162.9 192.05 163.5 192.4 164.3 192.5 165.15 192.75 165 193.2 165 193.2 164.65 193.8 164.65 194.25 164.05
Q 193.9 163 193.9 161.7
L 194.05 161 193.8 160.15 194.05 159.7 193.7 156.05 193.9 155.3 193.8 154.85 194.05 153.55 194.4 153.45 194.4 153.2 193.9 153.05 193.9 152.6 192.75 153.05 192.4 153.9
M 229.75 148.35
L 229.5 148.35 229.25 147.85 228.2 148.1 228.2 149.6 227.85 149.6 227.3 148.8 227.05 148.8 227.05 149.05 226.55 149.4 226.45 149.75 226.1 149.85
Q 225.85 150.9 226.7 151.6
L 226.2 153.4 226.55 154.45 226.8 154.55 227.5 154.35 227.85 154.35 228.2 154.8 228.1 155.15
Q 228.45 154.95 228.35 154.45
L 228.55 154 229 153.85 228.9 153.3 228.9 152.9 229.4 152.9 229.85 151.3 229.75 150.55 229.85 150.1 229.75 149.75 229.85 148.9 229.75 148.35
M 348 237.05
L 348 236.4 347.7 236.4 348 237.05
M 344.8 225.7
L 345 225.55 344.9 224.9 344.8 225.15 344.8 225.7
M 359.15 231
L 358.4 231.1 357.75 233.35 357.75 234 358 234.1 358 234.3 357.75 234.3 357.55 234.95 357.75 235.5
Q 357.65 236.15 358.1 236.45
L 357.75 237.2
Q 357.75 237.95 358.2 238.35
L 358.4 238.35 358.5 238.05 358.8 238.15 359.25 237.95
Q 359.8 237.95 360 237.55
L 359.9 237.1 360.1 236.55 359.9 236.75 359.7 236.75 360 236.25
Q 359.9 235.5 359.7 234.75
L 359.45 234.75 359.35 233.55 359.7 233.15 359.45 232.05 359.55 231.75 359.15 231
M 359.15 237.75
L 358.4 237.55 358.4 237.3 359.15 237.55 359.15 237.75
M 358.6 227.05
L 358.2 226.3
Q 357.55 226.3 357.25 226.85
L 357 226.85 357 227.45 357.25 227.45 357.35 227.9 357.65 227.8 358.3 228.1 358.6 227.35 359.15 227.05 358.6 227.05
M 356.8 226.4
L 356.8 226.85 357 226.85 357 226.4 356.8 226.4
M 324.15 231.75
L 324.1 231.75 324.25 232.05 324.15 231.75
M 325.3 233.9
L 325.1 233.05 323.8 232.5 323.8 231.75 324.1 231.75 323.8 231.2 323.2 231.2 322.95 231.65 322.45 231.65 322.45 231.3 321.9 231.3 321.8 231.85 320.85 231.95 320.2 232.9 320 232.9 319.65 234.3 319.35 234.45 319.15 234.85
Q 319.05 236.05 319.75 236.9
L 319.75 237.1 319.45 237.1 319.25 237.95
Q 319.35 239.25 320 240.2
L 321.05 239.9 321.05 239.45 321.5 239.45 322 239.15
Q 321.9 238.35 322.55 237.95
L 322.95 238.15 323.95 238.5 324.15 239.45
Q 325 239.25 325.55 239.9
L 325.95 239.8 326.3 239.15 325.75 238.6 325.65 237.55 325 237.4 325 237.1 325.3 237.1 325.2 236.9 325.3 236.65 325.4 236.25 325 235.3 325.3 233.9
M 325.2 237.95
L 325.4 237.95 325.4 238.25 325.2 238.25 325.2 237.95
M 325.1 238.9
L 324.9 238.9 324.9 238.7 325.1 238.9
M 319.65 234.75
L 320 234.75 319.9 235.15 319.65 235.15 319.65 234.75
M 323.05 232.9
L 323.6 233.15 323.4 234.1 322.95 234.1 322.85 234.3 322.95 234.5 322.85 235.3 322.45 235.5 322.55 235.9
Q 322.35 236.45 322.25 237
L 322 237 321.15 238.15
Q 320.55 238.25 320.1 237.85
L 320.3 237.2 320.2 236.25 320.2 235.9 320.4 235.9 320.3 235.4
Q 320.65 234.1 321.5 232.9 322 232.9 322.45 232.6
L 323.3 232.6 323.3 232.9 323.05 232.9
M 320.3 239.25
L 320.1 239.35 320.3 238.8 320.55 238.8 320.3 239.25
M 336.8 231.15
L 336.8 230.85 335.75 230.3 335.1 230.5
Q 335.2 232.65 334.25 234.25
L 334.35 234.55 333.6 235.7 333.4 235.7 332.95 234.65 333.05 233.9 332.95 233.5 332.3 233.2 332.55 232.85 332.55 232.2 332.85 232 332.65 231.5 332.75 231.15 332.75 230.3 332.3 230.2 332.65 229.75 332.65 229.55 332.1 229.55 331.9 230.1 331.6 229.95 331.25 230.1 331.05 230.5 331.25 231.4 331.25 231.5 331.25 231.5 331.35 231.9 330.95 232.85 331.8 233.05 331.8 233.25 331.35 233.25
Q 331.45 234.45 331.9 235.6
L 332.3 235.7 332.2 236.05 331.65 236.35 331.65 236.65 331.9 236.65 332.3 237.2 332.85 236.9 333.05 236.9 333.3 237.45 334.25 237.3
Q 334.55 236.8 334.55 236.15
L 334.9 236.25 335.85 237.85 336.15 238.05 336.7 238.9 336.8 239.35 337.05 238.9 336.9 238.5 336.9 238.05 337.25 237.85 337.05 237.85 336.8 237.45 337.05 236.9 336.9 236.15 336.6 236.15 336.05 234.35
Q 336.4 233.6 336.6 232.75
L 336.8 232.75 337.05 232.1 336.9 231.5 337.25 231.25 336.8 231.15
M 344.1 226.95
L 344.1 227.3 344.7 227.9 344.6 228.35 343.85 228.8 343.15 228.45
Q 341.95 228.45 341 229.1
L 341 229.85
Q 341.6 230.15 341.95 230.7
L 343 230.6 343 230.3 343.85 230.05 344.3 230.05 344.1 230.4 344.1 230.6 344.4 230.6 344.4 231.15 343.95 231.5 344.1 231.7 343.95 231.9
Q 343.85 232.45 344.3 232.75
L 343.95 233.55
Q 344 234.7 344.1 235.9
L 343.95 236.4
Q 343.95 237.4 344.4 238.25
L 345 237.9 345.15 237.7 345.45 237.9 346.95 237.5 347.05 237.05 347.45 237.05 347.15 236.55 346.2 236.65 345.9 236.4 345.35 236.4 345.65 235.9 345.55 235.55 345.55 235.35 345.75 235.35 345.9 235.05 345.35 234.8 345.55 234.25 345.55 233.55 345.15 233.2 345.15 232.75 345.65 232.55
Q 345.65 231.6 346 230.7
L 346 229.95 346.8 230.05 346.95 230.7 347.15 230.7 347.25 231.15 347.35 230.7 348.1 230.85 348.65 230.85 348.85 230.5
Q 348.75 229.75 349.25 229.35
L 349.25 229.1 348.65 229.45 348.75 229.75 348.5 230.3 348.3 230.3 348.3 228.8 347.15 228.8 347.15 229 346.2 228.7 346.2 227.4 345.9 227.3 345.9 226.85 345.65 226.85 345.65 226.65 345 226.4 344.9 226.1 344.4 226.2 344.1 226.95
M 347.35 229.75
L 347.7 229.45 347.7 229.1 348.1 229.35 347.8 229.75 347.35 229.75
M 347.45 230.05
L 347.8 230.05 347.8 230.5 347.45 230.5 347.45 230.05
M 395.25 238.9
L 395.45 238.9 395.45 238.45 395.25 238.45 395.25 238.9
M 395.45 227.3
L 395.45 226.85 394.4 227.3 394.1 228.05 394.2 228.45 394 229 394.2 229.45 393.9 230.3 394.1 230.85 393.9 231.25 393.9 231.7 394.3 232 394 232.45 393.9 233 394 233.4 393.9 234.4
Q 393.65 235.15 394.2 235.55
L 394.2 235.75 393.75 235.75 393.9 236.2 393.75 236.75 394.1 237.5 394.2 238.25 394.4 238.15 394.8 238.15 394.8 237.85 395.35 237.85 395.8 237.3
Q 395.45 236.3 395.45 235.15
L 395.55 234.5 395.35 233.75 395.55 233.3 395.25 229.95 395.45 229.35 395.35 228.9 395.55 227.7 395.9 227.6 395.9 227.4 395.45 227.3
M 370.6 225.35
L 370.8 224.5 371.15 224.6 371.45 225.25 371.7 224.7 372.2 224.6 372 223.85
Q 371.35 223.5 370.8 223.1
L 370.5 223.4 370.1 224.5 369.65 224.35 369.45 224.35 369.55 224.6 369.55 224.9 369 224.5 368.8 224.5 369.15 225 369.15 225.25 368.7 225.25
Q 368.2 225.95 367.95 226.95
L 368.6 227.25 368.6 227.55 368.3 227.45 367.45 227.9 367.45 228.35 367.95 228.45 367.75 229.4
Q 367.65 230.15 367.95 230.7
L 367.65 231.45 367.15 231.2 366.25 231.2 366.05 231.85 365.45 231.95 365.75 231.95 365.65 232.3 365.65 232.6 366.7 233.05 366.9 232.9
Q 367.55 232.85 367.95 233.35
L 368.6 233.25
Q 369.15 233.65 369.9 233.55
L 369.9 233.8 369.35 234 369.35 234.3 370.2 234.45 370 235.05 370.2 235.9 370.1 236.25 370.2 236.75 369.9 237.55
Q 369 238.6 367.85 238.7
L 367.35 238.6 367 238.7 365.35 238.15 364.9 237.75 364.6 237.55 364.35 237.55 364.35 237.95 364.6 238.05 364.7 238.5 365 238.5 365 238.8 365.65 239.25 365.95 239.25 365.95 239.55 367.15 239.9 369.35 239.55 369.25 239.25 369.35 238.8 369.75 238.9 370.1 238.9 370.8 238.05 371.25 236.65 371.25 236.25 371.05 236.25 371.05 235.8 371.35 235.7 371.35 235.3 371.55 235.15 371.55 234.95 371.15 234.85
Q 371.15 233.9 371.45 233.05
L 371.8 232.85 371.7 232.5 371.7 232.3 372.1 232.3 372.1 231.95 372.3 231.95 372.3 231.75
Q 371.8 231.65 371.8 232.2
L 371.35 231.95 371.05 232.2 370.6 231.65 370 231.65 370.1 231.3 369.55 229.8 368.9 230.15 368.5 230.05 368.5 229.7 369 229.6 369.25 229.2 368.9 227.7 368.9 227.15 369.15 227.15
Q 369.55 225.95 370.6 225.35
M 368.2 231.85
L 367.95 231.85 367.95 231.45 368.3 231.45 368.2 231.85
M 368.7 232.4
L 368.8 232.6 368.4 232.7 368.5 232.4 368.7 232.4
M 367.95 233.05
L 367.65 233.05 367.65 232.7 367.95 232.7 367.95 233.05
M 368.9 232.6
L 368.9 231.95 369.75 232.2 369.75 232.4 368.9 232.6
M 370.2 233.45
L 370.6 233.55 370.4 234.1 370.4 234.3 370 234.3 370.2 233.45
M 370.5 235.4
L 370.3 235.4 370.3 235.15 370.5 235.4
M 372.75 224.8
L 372.2 225.1 372.2 225.45 372.4 225.55 372.65 225.95 372.85 226.1 372.95 226.85 373.15 226.95 373.05 226.75 373.15 226.4
Q 373.35 225.45 372.75 224.8
M 379.6 229.95
L 379.25 230.1 379.05 230.5 379.25 231.4 379.25 231.5 379.25 231.5 379.35 231.9 378.95 232.85 379.8 233.05 379.8 233.25 379.35 233.25
Q 379.45 234.45 379.9 235.6
L 380.3 235.7 380.2 236.05 379.65 236.35 379.65 236.65 379.9 236.65 380.3 237.2 380.85 236.9 381.05 236.9 381.3 237.45 382.25 237.3
Q 382.55 236.8 382.55 236.15
L 382.9 236.25 383.85 237.85 384.15 238.05 384.7 238.9 384.8 239.35 385.05 238.9 384.9 238.5 384.9 238.05 385.25 237.85 385.05 237.85 384.8 237.45 385.05 236.9 384.9 236.15 384.6 236.15 384.05 234.35
Q 384.4 233.6 384.6 232.75
L 384.8 232.75 385.05 232.1 384.9 231.5 385.25 231.25 384.8 231.15 384.8 230.85 383.75 230.3 383.1 230.5
Q 383.2 232.65 382.25 234.25
L 382.35 234.55 381.6 235.7 381.4 235.7 380.95 234.65 381.05 233.9 380.95 233.5 380.3 233.2 380.55 232.85 380.55 232.2 380.85 232 380.65 231.5 380.75 231.15 380.75 230.3 380.3 230.2 380.65 229.75 380.65 229.55 380.1 229.55 379.9 230.1 379.6 229.95
M 429.75 233.35
L 429.75 234 430 234.1 430 234.3 429.75 234.3 429.55 234.95 429.75 235.5
Q 429.65 236.15 430.1 236.45
L 429.75 237.2
Q 429.75 237.95 430.2 238.35
L 430.4 238.35 430.5 238.05 430.8 238.15 431.25 237.95
Q 431.8 237.95 432 237.55
L 431.9 237.1 432.1 236.55 431.9 236.75 431.7 236.75 432 236.25
Q 431.9 235.5 431.7 234.75
L 431.45 234.75 431.35 233.55 431.7 233.15 431.45 232.05 431.55 231.75 431.15 231 430.4 231.1 429.75 233.35
M 431.15 237.75
L 430.4 237.55 430.4 237.3 431.15 237.55 431.15 237.75
M 429 226.85
L 429 226.4 428.8 226.4 428.8 226.85 429 226.85
M 431.15 227.05
L 430.6 227.05 430.2 226.3
Q 429.55 226.3 429.25 226.85
L 429 226.85 429 227.45 429.25 227.45 429.35 227.9 429.65 227.8 430.3 228.1 430.6 227.35 431.15 227.05
M 443.15 224.6
L 443.45 225.25 443.7 224.7 444.2 224.6 444 223.85
Q 443.35 223.5 442.8 223.1
L 442.5 223.4 442.1 224.5 441.65 224.35 441.45 224.35 441.55 224.6 441.55 224.9 441 224.5 440.8 224.5 441.15 225 441.15 225.25 440.7 225.25
Q 440.2 225.95 439.95 226.95
L 440.6 227.25 440.6 227.55 440.3 227.45 439.45 227.9 439.45 228.35 439.95 228.45 439.75 229.4
Q 439.65 230.15 439.95 230.7
L 439.65 231.45 439.15 231.2 438.25 231.2 438.05 231.85 437.45 231.95 437.75 231.95 437.65 232.3 437.65 232.6 438.7 233.05 438.9 232.9
Q 439.55 232.85 439.95 233.35
L 440.6 233.25
Q 441.15 233.65 441.9 233.55
L 441.9 233.8 441.35 234 441.35 234.3 442.2 234.45 442 235.05 442.2 235.9 442.1 236.25 442.2 236.75 441.9 237.55
Q 441 238.6 439.85 238.7
L 439.35 238.6 439 238.7 437.35 238.15 436.9 237.75 436.6 237.55 436.35 237.55 436.35 237.95 436.6 238.05 436.7 238.5 437 238.5 437 238.8 437.65 239.25 437.95 239.25 437.95 239.55 439.15 239.9 441.35 239.55 441.25 239.25 441.35 238.8 441.75 238.9 442.1 238.9 442.8 238.05 443.25 236.65 443.25 236.25 443.05 236.25 443.05 235.8 443.35 235.7 443.35 235.3 443.55 235.15 443.55 234.95 443.15 234.85
Q 443.15 233.9 443.45 233.05
L 443.8 232.85 443.7 232.5 443.7 232.3 444.1 232.3 444.1 231.95 444.3 231.95 444.3 231.75
Q 443.8 231.65 443.8 232.2
L 443.35 231.95 443.05 232.2 442.6 231.65 442 231.65 442.1 231.3 441.55 229.8 440.9 230.15 440.5 230.05 440.5 229.7 441 229.6 441.25 229.2 440.9 227.7 440.9 227.15 441.15 227.15
Q 441.55 225.95 442.6 225.35
L 442.8 224.5 443.15 224.6
M 440.3 231.45
L 440.2 231.85 439.95 231.85 439.95 231.45 440.3 231.45
M 439.95 233.05
L 439.65 233.05 439.65 232.7 439.95 232.7 439.95 233.05
M 441.75 232.2
L 441.75 232.4 440.9 232.6 440.9 231.95 441.75 232.2
M 442.2 233.45
L 442.6 233.55 442.4 234.1 442.4 234.3 442 234.3 442.2 233.45
M 440.5 232.4
L 440.7 232.4 440.8 232.6 440.4 232.7 440.5 232.4
M 442.5 235.4
L 442.3 235.4 442.3 235.15 442.5 235.4
M 444.75 224.8
L 444.2 225.1 444.2 225.45 444.4 225.55 444.65 225.95 444.85 226.1 444.95 226.85 445.15 226.95 445.05 226.75 445.15 226.4
Q 445.35 225.45 444.75 224.8
M 419.25 238.9
L 419.45 238.9 419.45 238.45 419.25 238.45 419.25 238.9
M 419.35 228.9
L 419.55 227.7 419.9 227.6 419.9 227.4 419.45 227.3 419.45 226.85 418.4 227.3 418.1 228.05 418.2 228.45 418 229 418.2 229.45 417.9 230.3 418.1 230.85 417.9 231.25 417.9 231.7 418.3 232 418 232.45 417.9 233 418 233.4 417.9 234.4
Q 417.65 235.15 418.2 235.55
L 418.2 235.75 417.75 235.75 417.9 236.2 417.75 236.75 418.1 237.5 418.2 238.25 418.4 238.15 418.8 238.15 418.8 237.85 419.35 237.85 419.8 237.3
Q 419.45 236.3 419.45 235.15
L 419.55 234.5 419.35 233.75 419.55 233.3 419.25 229.95 419.45 229.35 419.35 228.9
M 455.65 231.45
L 455.95 231.3 455.65 230.35 455.85 229.95 455.75 229.5 454.8 229.3 454.45 228.75 453.85 228.65 453.65 228.65
Q 453.55 229.2 453 229.4
L 452.8 229.95 452.45 229.8 451.95 229.8 451.3 230.7 451.3 231.1 450.7 231.2 450.25 232.4 450.35 232.85 449.85 234 449.85 234.2 450.15 234.2 449.95 235.7
Q 450.05 236.65 450.8 237.1
L 450.7 237.4 451.1 238.25 451.65 238.5 451.65 238.7 453 239.8 453.1 239.65 453.1 238.7 453.4 238.8 453.55 239.15 454.15 239.15 454.25 239.55 454.9 239.55 455 239 455.2 238.9 454.7 238.8 454.7 238.6 455 238.6 454.8 237.95 455.95 238.15 456.15 238.15 455.2 237.75 454.7 237.95 453 237.4 453 237.2 452.7 237.1 452.7 236.75 452.45 236.9 452.25 236.9
Q 451.95 236.55 451.95 235.9
L 451.75 235.9 451.5 235.4 451.2 235.15
Q 451.3 234.5 451 234.1
L 451.1 233.8 452.55 234 453.55 234 453.65 233.15 453.95 233.15 454.05 233.8 454.7 233.8 455.5 233.05 455.4 232.4 455.65 231.45
M 454.15 229.7
L 453.95 229.7 453.95 229.5 454.15 229.5 454.15 229.7
M 453.3 231
Q 453.75 230.9 453.65 230.35
L 454.05 230.35 454.8 231.1 454.6 231.75 452.9 232.2 452.05 232.05 452.45 230.9 452.8 231 453.3 231
M 450.6 231.75
L 451 231.85 451 232.2 450.5 232.05 450.6 231.75
M 450.9 234.65
L 450.6 234.65 450.6 234.2 450.9 234.2 450.9 234.65
M 454.9 233.35
L 454.7 233.35 454.8 233.05 455 233.05 454.9 233.35 Z"/>

<path fill="#000000" stroke="none" d="
M 111.35 187.8
L 111.35 189.3 112.1 189.7 112.85 189.3 112.1 188.95 112.1 187.8 111.35 187.8
M 120.4 179.7
L 120.1 181.9 120.4 183.75
Q 123.4 182.65 126.3 182.65
L 128.85 183.4 129.9 186.7 129.9 187.45 128.1 187.85 127.75 190.8 125.95 191.15 125.55 192.65 124.8 192.65 123.7 191.15 121.9 192.25 120.4 191.9 118.6 192.25 117.5 192.25 116.45 190.8 115.35 193.35 115.7 195.6 116.45 195.6 116.8 193.35 117.85 193.35 118.6 196.35 120.4 196.35 120.4 195.6 121.9 195.6 122.25 198.15 127 197.1 127.4 197.1 127.4 202.35
Q 128.05 201.7 128.7 201.05
L 128.7 203.25 129.1 203.25 129.1 204.75 128.35 204.75 128.7 208.8 128 210.25 128 213.55 129.05 214.3 129.05 214.45 128.35 216.55
Q 128.8 217.6 129.05 218.7
L 129.05 220.5 128.15 221.75 125.25 221 122.25 221.75 120.85 221 118.65 221.65 118.6 220.4 117.35 220.4 117.35 219.4 118.55 219.4 118.45 217.1 119.35 215.35 119.4 214.6 118.25 214.5 119.15 212.7 119 210.45 117.95 209.65 118.55 208.5 113.1 208 112.6 208.45 112.1 210.25 112.85 222.55
Q 113.4 224.8 111.45 226.05
L 111.6 228.35 114.6 227.85 114.85 227.2
Q 116.1 227.2 116.45 228.4
L 117.2 228.4 117.2 228.05 118.3 228.45 119.05 228.05 117.95 227.7 117.2 226.55 117.2 226.2 118.65 227.25 121.95 226.2 122.65 226.2 122.65 226.55 123 226.45 123 228.4 125.25 229.15 125.55 228.75 125.55 227.7 127.05 228.4 128.85 227.7 132.15 228.4 132.45 228.3 132.45 226.9 133.95 226.9 133.95 227.6 134.75 227.25 135.4 227.7 137.3 228.4 139.1 228 141.65 228.75 144.15 227.7 145.65 228.4 146.75 227.25 150.05 226.2 149.7 225.1 148.55 224.7 148.55 223.65 150.05 223.95 150.05 223.25 148.95 223.25 148.8 222.5 148.85 222.45 149.35 220.95 148.1 217.9 150 213.65 150.05 212.9 148.9 212.8 149.8 211 149.65 208.75 148.6 207.95 149.2 206.8 145 207.3 143.75 211.5 143.5 220.85
Q 143.7 221.6 143.6 222.25
L 143.1 222.5 142.35 222.5 142.35 221.75 137.95 221.4 136.9 219.95 134.4 219.95 134.4 221.3 133.8 221.15 133.8 219.85 134.2 219.85 134.55 218.75 135.7 218.75 135.3 217.25 135.3 214.3 136.05 214.3 134.95 209.85 133.85 208.8 133.85 206.55 134.95 206.95 135.7 206.95 135.7 205.8 134.2 205.5
Q 134.2 204 136.05 204.35
L 134.95 201.35 135.7 199.2 135.3 198.05 135.6 197.35 137.05 198.3 139.8 195.2 140.9 195.2 140.9 196.35 142.3 195.95 142.7 194.85
Q 144.8 196 147.1 195.95 147.45 193.35 149.25 191.5
L 148.9 188.9 144.55 190.05 144.2 191.15 141.65 190.8 139.1 191.5 134.7 189.65 134.7 187.1 135.45 187.1 135.45 184.9
Q 139.8 184.9 143.8 183.4
L 144.55 181.6 144.55 180.1
Q 141.25 180.45 138.7 179.35
L 137.25 179.7 134.7 179.7 135.45 177.45 134.7 173.45 132.15 173.85
Q 132.5 175.3 131.4 176
L 130.3 178.95 129.2 178.95 128.85 177.45 128.1 177.45 128.5 178.2 128.5 179.35 126.7 180.1 126.7 178.95 125.2 179.35 123.7 179.35 123.7 178.2 122.25 179.35 120.4 179.7
M 139.1 180.85
L 139.1 181.6 138.35 181.6 138.35 180.85 139.1 180.85
M 123 181.2
L 121.9 181.6 121.9 180.45 123 181.2
M 124.1 193.7
L 123 193.35 123 192.65 124.1 193.7
M 133.05 196.75
L 133.05 197.65 133.45 198.05 133.35 198.5 133.05 198.05 132.9 198.1 132.9 195.55 134.1 196.35 133.05 196.75
M 136.85 192.95
L 133.55 191.9 133.55 191.15 136.85 192.95
M 146 193.7
L 144.9 193.7 145.3 192.65 146 192.65 146 193.7
M 145.4 211.35
L 144.25 211.65 144.35 210.9 145.4 211.35
M 132 204
L 132 205.05 130.9 205.05 130.9 203.6 132 204
M 130.15 199.9
L 129.8 199.9 129.8 198.15 130.65 197.35 132.85 198.15 130.5 198.8 130.15 199.9
M 132 218
L 132.55 218 132.55 219.85 132 219.85 132 218
M 140.95 226.95
L 139.8 227.25 139.1 225.1 141.25 225.45 140.95 226.95
M 114.75 213.05
L 113.6 213.35 113.7 212.6 114.75 213.05
M 121.2 226.2
L 121.2 225.45 122.25 225.8 121.2 226.2
M 82.5 153.05
L 81.95 154.4 81.35 154.9 80.65 156.05
Q 80.5 157.35 81.5 158.05 83.8 155.55 86.55 153.75
L 86.4 148.4 86.25 149.25 83.95 151.75 83.65 153.05 83.1 152.9 82.5 153.05
M 108.8 170.5
L 106.95 170.15
Q 100.75 170.5 94.55 172
L 90.55 170.85 88.7 171.25 89.45 172.7 89.1 176.05 89.45 177.15
Q 88.7 184.5 86.9 191.2
L 86.9 192.25 87.95 192.65 86.55 197.8 86.55 207 87.95 207.75 86.9 208.85 86.55 210.75
Q 87.65 216.6 88.35 222.9 89.1 225.1 87.3 226.55
L 87.65 228.8 90.55 228.05 91.25 225.5 93.85 224 94.25 222.5 93.5 217 94.25 215.2 94.25 214.45 93.1 214.45 93.85 212.55 93.5 210.3 92.35 209.6 93.5 206.7 95.3 207.45 96.05 207.45 97.15 206.3 97.45 207.45 98.2 207 97.85 205.95 98.2 204.8 100.05 205.2 99.3 206.7 99.3 207.75 100.05 207.75 100.45 206.3 101.85 207 105.55 205.95 107.7 204.45 108.45 202.55 109.2 202.55 111 200 110.6 198.95 111.35 197.45
Q 112.1 194.1 109.95 193
L 109.95 191.95 108.05 191.95 108.45 190.8 108.05 189.7 103.65 187.1 104.05 186
Q 105.9 184.2 108.05 183.45
L 109.55 181.2 112.1 180.05
Q 115.75 177.9 117.55 174.55
L 117.55 173.8 116.45 173.8 116.15 170.5 116.15 171.25 111.75 169.75 108.8 170.5
M 93.1 178.25
L 96.05 176.75 97.45 177.15 99.3 176.05 100.45 176.45 102.25 175.7
Q 104.8 174.95 106.25 177.15
L 105.9 178.6 106.25 179.75 106.25 181.2 105.15 181.2 105.15 180.45 102.6 180.8 102.6 181.95 100.45 182.3 100.45 183.05 97.85 184.5 96.75 188.2 95.3 188.55 96.05 191.5 97.45 191.2 98.6 191.2 99.3 192.65 100.05 192.25 100.75 192.25 100.75 191.5 102.6 193 102.25 194.1 102.25 195.25 103.65 196.7 103.35 197.8 98.6 199.25 96.75 199.25 93.5 200 92 199.7 91.25 198.2 90.2 197.8 90.2 196.7 91.25 196.7 91.65 194.1 91.25 192.65 91.65 190.8 91.25 188.55
Q 92 183.45 93.1 178.25
M 88.7 190.05
L 87.3 190.45 87.65 189.3 88.7 190.05
M 107.7 175.7
L 106.95 175.7 106.95 174.95 107.7 174.95 107.7 175.7
M 105.15 194.85
L 104.4 194.85 104.4 194.1 105.15 194.85
M 109.95 195.25
L 109.2 195.25 109.2 194.5 109.95 195.25
M 94.55 203.7
L 93.5 203.7 93.5 203 94.55 203.7
M 93.85 206.3
L 93.1 206.3 93.1 205.55 93.85 205.55 93.85 206.3
M 89.1 221.8
L 90.95 221.8 90.95 222.9 89.1 222.9 89.1 221.8
M 89.45 213.3
L 88.35 213.7 88.35 212.95 89.45 213.3
M 66.7 177.8
L 67.2 177.6 66.7 175.6 66.7 177.8
M 80.35 147.45
L 77.9 147.45 76.9 148.95 77.05 149.6 76.9 150.1 75.9 150.25 76.25 151.05 76.25 151.4 75.25 151.55 74.75 153.4 73.95 153.9 73.15 155.9 73.15 156.55 74.45 157.9 77.05 157.55 77.4 156.2
Q 78.85 154.9 79.5 153.05
L 80 152.75 80 151.25 80.65 151.25 80.65 150.6 81.15 150.4 81.15 149.9 80.8 149.75 81.35 148.6 81.35 147.75 80.35 147.45
M 80.65 149.9
L 80.2 149.75 80.2 149.4 80.65 149.6 80.65 149.9
M 304.35 173.15
L 303.8 173.15 303.8 173.7 304.6 173.7 304.1 175.45 303.5 175.15 302.9 175.45 302.3 175.45 302.05 174.85 301.2 175.15 301.5 176.05 301.5 177.85 300.6 177.5 300.05 175.45 299.1 175.75 299.7 177.25 300.3 177.25 300.05 178.05 298 178.4 298.3 179.55 298.3 180.1 297.4 179.85 296.85 179 296.85 180.1 296 180.1 296.85 181.85 297.15 183.6 298 184.8 297.7 185.65 298.3 185.65
Q 298.6 187.7 297.4 188.9
L 298 191.2 298 192.1 297.15 192.7 296.3 195.85 296.6 197.05 297.15 196.75 298.3 196.75 297.4 199.05 297.4 200.55 298.9 200.55 298.9 201.4 296.3 202.3 297.7 204.55 296.85 205.75 296.3 207.55 297.4 209 296.3 210.7
Q 296.6 212.8 298.3 213.95
L 298 215.1 298.3 216 300.05 216.8 300.05 215.4 303.2 216 303.2 215.4 304.1 214.8 304.1 214.2 303.2 214.2 302.3 213.4 302.3 212.45 302.9 212.8 303.5 212.8 304.6 210.7 303.8 209.85 304.1 207.85 305.2 207.85 304.95 208.7 304.95 209.25 306.65 209 306.95 208.1 309.25 208.1 309.25 209.25 311 209.25 311.3 210.15 311.3 211.05 310.7 211.3 310.7 212.2 311.85 213.4 311 213.4 312.45 214.55 314.15 214.2 314.7 211.9 316.5 211.9 316.2 210.15
Q 315.6 208.1 317.35 207.55
L 317.9 205.75 317 204 317 203.15 317.9 202.55 318.5 201.4 317.9 199.65 318.2 198.2 318.8 198.2 319.6 195.85 319.35 194.1 318.5 193.85 319.6 191.8 319.05 188.3 319.35 184.8 320.5 184.2 320.2 183.35 320.2 184.2 319.35 184.5 318.8 184.5 318.8 181.85 317.6 181.6 317.6 181 318.5 181 318.5 180.45
Q 316.5 180.45 315 181.85
L 313.9 181.85 312.7 182.45 311.85 181.85 310.7 182.45 309.5 181.25 308.4 181.85 307.8 181.85 308.1 180.1 310.4 179 311 177.85 311.5 178.05 315 176.65 317 174.55 316.75 172.55 315.6 172.55 315.6 170.5 314.7 170.5 314.7 169.6 314.15 169.6 314.45 168.45 314.45 167.9 312.7 167.9 312.45 169 311.5 168.8 310.1 169.35 310.7 169.35 310.7 170.2 309.25 170.5 309.5 171.4 309.5 171.95 307.2 172.25 307.2 173.4 306.4 173.4 306.05 174.3 305.2 174.3 304.35 173.15
M 308.1 173.15
L 308.7 173.15 308.7 173.7 308.1 173.7 308.1 173.15
M 299.1 183.35
L 299.1 183.95 298.6 183.95 299.1 183.35
M 303.2 181
L 303.2 180.1 304.1 180.1 304.1 181 303.2 181
M 298.9 187.7
L 299.45 187.7 299.1 189.15 298.3 188.9 298.9 187.7
M 302.9 196.45
L 303.2 194.7 303.8 194.7 303.8 196.45 302.9 196.45
M 315.3 182.45
L 315.3 181.85 316.5 182.45 315.3 182.45
M 305.8 175.45
L 304.95 175.45 304.95 174.55 305.8 174.55 305.8 175.45
M 308.7 185.4
L 309.5 185.4 309.5 186.25 308.7 186.25 308.7 185.4
M 311.3 186.25
L 312.7 186.8 314.45 186.8 315 185.65 315.6 185.65 315.9 186.55 315.3 192.35 313.05 191.8 313.3 193.5 313.3 193.25 314.45 193.25 313.9 195 313.05 195 313.3 194.4 312.1 194.4 311.85 192.9 311 193.5 309.5 192.35 308.4 192.35 308.1 193.5
Q 306.95 193.85 306.4 192.9
L 305.8 193.25 302.9 191.8
Q 302.9 189.15 304.1 186.8
L 304.95 187.1 307.2 186.8 308.4 187.4 311 187.1 311.3 186.25
M 308.7 197.9
L 308.1 197.9 308.7 195.6 309.25 195.6 308.7 197.9
M 306.95 197.6
L 307.55 197.6 307.55 198.2 306.95 198.2 306.95 197.6
M 310.4 197.6
L 311 197.6 311.3 198.45 311.85 198.45 311.85 197.35 313.9 197.35 314.15 198.2
Q 313.3 200.55 313.05 203.15
L 313.05 204.35 311.3 204.35 311.85 202.85 311.85 202.3
Q 309.5 201.75 308.4 203.75
L 307.55 203.45 308.1 202.85 308.1 201.95 305.5 202.55
Q 303.8 202.85 302.6 201.95
L 302.6 202.85 301.75 202.85 301.75 201.95 302.6 201.95 302.9 200.55 304.6 199.95 304.95 199.35 306.05 200.25 307.8 199.35 308.7 199.65 309.5 199.65 310.4 197.6
M 306.65 204.95
L 306.65 205.5 306.05 205.5 306.05 204.95 306.65 204.95
M 304.6 206.65
L 305.5 206.65 305.5 207.55 304.6 207.55 304.6 206.65
M 304.1 206.65
L 304.1 207.55 303.2 207.25 303.2 206.65 304.1 206.65
M 311.5 207.25
L 311 207.25 311.5 206.35 311.5 207.25
M 298.3 203.75
L 298.3 202.55 299.1 203.45 298.3 203.75
M 302.6 206.05
L 301.75 206.05 302.6 205.15 302.6 206.05
M 299.45 214.8
L 299.45 215.65 298.6 215.65 298.6 214.8 299.45 214.8
M 267 161.5
L 266.6 161.5 267.05 161.6 267 161.5
M 268.05 161.85
L 267.05 161.6 267.35 162.6 268.05 162.6 268.05 161.85
M 209.25 183.45
L 209.85 183.15 209.25 182.85 209.25 181.95 208.65 181.95 208.65 183.15 209.25 183.45
M 200.8 178.8
L 199.65 179.05 197.6 179.05 198.2 177.25 197.6 174.1 195.6 174.4
Q 195.85 175.55 195 176.1
L 194.1 178.45 193.25 178.45 192.95 177.25 192.35 177.25 192.65 177.85 192.65 178.8 191.25 179.4 191.25 178.45 190.05 178.8 188.85 178.8 188.85 177.85 187.7 178.8 186.2 179.05 185.95 180.8 186.2 182.3
Q 188.6 181.4 190.9 181.4
L 192.95 182 193.8 184.65 193.8 185.25 192.35 185.55 192.05 187.9 190.65 188.2 190.3 189.4 189.7 189.4 188.85 188.2 187.4 189.05 186.2 188.8 184.75 189.05 183.9 189.05 183.05 187.9 182.2 189.95 182.45 191.75 183.05 191.75 183.35 189.95 184.2 189.95 184.75 192.35 186.2 192.35 186.2 191.75 187.4 191.75 187.7 193.75 191.45 192.95 191.8 192.95 191.8 197.1
Q 192.3 196.6 192.85 196.1
L 192.85 197.85 193.15 197.85 193.15 199.05 192.55 199.05 192.85 202.25 192.25 203.4 192.25 206.05 193.1 206.65 193.1 206.75 192.55 208.45
Q 192.9 209.3 193.1 210.15
L 193.1 211.6 192.4 212.6 190.1 212 187.7 212.6 186.55 212 184.8 212.5 184.75 211.5 183.8 211.5 183.8 210.7 184.75 210.7 184.65 208.9 185.35 207.5 185.4 206.9 184.5 206.8 185.2 205.35 185.1 203.6 184.25 202.95 184.75 202.05 180.4 201.65 180 202 179.6 203.4 180.2 213.25
Q 180.65 215 179.05 216
L 179.2 217.85 181.6 217.45 181.8 216.95
Q 182.8 216.95 183.05 217.9
L 183.65 217.9 183.65 217.6 184.55 217.95 185.15 217.6 184.25 217.35 183.65 216.4 183.65 216.15 184.8 217 187.45 216.15 188 216.15 188 216.4 188.3 216.35 188.3 217.9 190.1 218.5 190.3 218.15 190.3 217.35 191.5 217.9 192.95 217.35 195.6 217.9 195.8 217.8 195.8 216.7 197 216.7 197 217.25 197.65 217 198.15 217.35 199.7 217.9 201.1 217.55 203.15 218.15 205.15 217.35 206.35 217.9 207.2 217 209.85 216.15 209.55 215.25 208.65 214.95 208.65 214.1 209.85 214.35 209.85 213.8 208.95 213.8 208.85 213.2 208.9 213.15 209.3 211.95 208.3 209.5 209.8 206.15 209.85 205.55 208.95 205.45 209.65 204 209.55 202.25 208.7 201.6 209.15 200.65 205.8 201.05 204.85 204.4 204.65 211.85
Q 204.8 212.45 204.7 213
L 204.3 213.2 203.7 213.2 203.7 212.6 200.2 212.3 199.35 211.15 197.35 211.15 197.35 212.25 196.9 212.1 196.9 211.1 197.2 211.1 197.5 210.2 198.4 210.2 198.1 209 198.1 206.65 198.7 206.65 197.8 203.1 196.95 202.25 196.95 200.45 197.8 200.8 198.4 200.8 198.4 199.85 197.2 199.65
Q 197.2 198.45 198.7 198.7
L 197.8 196.3 198.4 194.6 198.1 193.7 198.35 193.15 199.5 193.9 201.7 191.4 202.55 191.4 202.55 192.35 203.65 192 204 191.15
Q 205.65 192.05 207.5 192 207.8 189.95 209.2 188.45
L 208.95 186.4 205.45 187.3 205.2 188.2 203.15 187.9 201.1 188.45 197.6 187 197.6 184.95 198.2 184.95 198.2 183.2
Q 201.7 183.2 204.85 182
L 205.45 180.6 205.45 179.4
Q 202.85 179.65 200.8 178.8
M 201.1 180.6
L 200.5 180.6 200.5 180 201.1 180 201.1 180.6
M 188.3 180.25
L 187.4 180.6 187.4 179.65 188.3 180.25
M 189.15 190.25
L 188.3 189.95 188.3 189.4 189.15 190.25
M 196.7 188.8
L 196.7 188.2 199.35 189.65 196.7 188.8
M 196.3 193.7
L 196.2 193.75 196.2 191.7 197.15 192.35 196.3 192.65 196.3 193.35 196.6 193.7 196.55 194.05 196.3 193.7
M 193.7 193.75
L 194.4 193.15 196.15 193.75 194.25 194.3 194 195.15 193.7 195.15 193.7 193.75
M 206.6 190.25
L 205.75 190.25 206.05 189.4 206.6 189.4 206.6 190.25
M 206.15 204.3
L 205.25 204.55 205.3 203.95 206.15 204.3
M 202.85 215.55
L 202.6 216.75 201.7 217 201.1 215.25 202.85 215.55
M 195.45 199.25
L 194.6 199.25 194.6 198.1 195.45 198.45 195.45 199.25
M 195.45 209.6
L 195.9 209.6 195.9 211.1 195.45 211.1 195.45 209.6
M 186.85 216.15
L 186.85 215.55 187.7 215.8 186.85 216.15
M 181.7 205.65
L 180.8 205.9 180.85 205.3 181.7 205.65
M 184.2 171.45
L 184.2 172.05 180.7 170.85 178.35 171.45 176.9 171.15
Q 171.95 171.45 167 172.65
L 163.8 171.75 162.35 172.05 162.95 173.2 162.65 175.85 162.95 176.75
Q 162.35 182.6 160.9 187.95
L 160.9 188.8 161.75 189.1 160.6 193.2 160.6 200.55 161.75 201.15 160.9 202.05 160.6 203.55
Q 161.5 208.2 162.05 213.25 162.65 215 161.2 216.15
L 161.5 217.95 163.8 217.35 164.35 215.3 166.45 214.1 166.75 212.9 166.15 208.5 166.75 207.1 166.75 206.5 165.85 206.5 166.45 205 166.15 203.2 165.25 202.6 166.15 200.3 167.6 200.9 168.2 200.9 169.05 200 169.3 200.9 169.9 200.55 169.65 199.7 169.9 198.8 171.4 199.1 170.8 200.3 170.8 201.15 171.4 201.15 171.7 200 172.8 200.55 175.75 199.7 177.5 198.5 178.1 197 178.65 197 180.1 194.95 179.8 194.15 180.4 192.95
Q 181 190.25 179.25 189.4
L 179.25 188.55 177.75 188.55 178.1 187.65 177.75 186.75 174.25 184.7 174.55 183.8
Q 176.05 182.35 177.75 181.75
L 178.95 180 181 179.05
Q 183.9 177.35 185.35 174.7
L 185.35 174.1 184.45 174.1 184.2 171.45
M 177.5 175
L 177.5 175.6 176.9 175.6 176.9 175 177.5 175
M 173.15 175.6
Q 175.15 175 176.3 176.75
L 176.05 177.9 176.3 178.8 176.3 180 175.45 180 175.45 179.4 173.4 179.65 173.4 180.6 171.7 180.85 171.7 181.45 169.65 182.6 168.75 185.55 167.6 185.85 168.2 188.2 169.3 187.95 170.2 187.95 170.8 189.1 171.4 188.8 171.95 188.8 171.95 188.2 173.4 189.4 173.15 190.25 173.15 191.2 174.25 192.35 174 193.2 170.2 194.35 168.75 194.35 166.15 194.95 164.95 194.75 164.35 193.55 163.55 193.2 163.55 192.35 164.35 192.35 164.7 190.25 164.35 189.1 164.7 187.65 164.35 185.85
Q 164.95 181.75 165.85 177.65
L 168.2 176.45 169.3 176.75 170.8 175.85 171.7 176.2 173.15 175.6
M 167 197.9
L 166.15 197.9 166.15 197.35 167 197.9
M 179.25 191.2
L 178.65 191.2 178.65 190.6 179.25 191.2
M 175.45 190.85
L 174.85 190.85 174.85 190.25 175.45 190.85
M 161.2 187.35
L 161.5 186.45 162.35 187.05 161.2 187.35
M 166.45 200
L 165.85 200 165.85 199.4 166.45 199.4 166.45 200
M 162.95 205.55
L 162.05 205.9 162.05 205.3 162.95 205.55
M 164.1 213.25
L 162.65 213.25 162.65 212.35 164.1 212.35 164.1 213.25
M 427.15 209.05
L 426.8 207.25
Q 419.05 209.5 412.35 213.95
L 414.25 215 415.75 214.25 416.8 212.45 417.55 212.8 427.15 209.05
M 477.45 225.4
L 476.5 225.6 475.85 225.4 475 225.6
Q 473.85 225.75 472.9 225.1
L 471.9 225.4
Q 470.95 227.25 469.8 229.1
L 469.8 230.4 470.4 230.4 471.25 231.25 471.25 232.4 470.4 232.55 470.4 233.9 470.95 234.05 471.25 234.9 472.7 235.55 473.2 235.4 473.85 235.55 476 235.05 476 234.7 476.5 234.9 477.65 234.9 478.6 233.55 479.1 233.4 480.1 232.25 479.75 231.55 480.1 230.9 479.95 228.4 479.3 228.1 479.1 227.1 478.45 226.75 478.3 226.25 477.3 225.95 477.45 225.4
M 476.65 227.4
L 477.65 228.4
Q 478 230.4 476.65 231.7
L 475.35 232.55 473.4 232.25 472.9 231.4 473.2 229.1 475.85 227.25 476.65 227.4
M 473.05 233.7
L 473.2 232.4 473.85 232.4
Q 474 233.25 473.55 233.9
L 473.05 233.7
M 478.6 177.85
L 477.8 179
Q 476.15 182 474.85 185.1
L 473.85 185.6 474.5 187.1 475.85 187.6 477.45 187.25 477.6 186.45 478.6 185.6
Q 479.1 184.6 479.45 183.6
L 480.25 183.3 480.1 182.8 480.4 182.45
Q 480.6 181.3 481.4 180.5
L 481.9 180.3 481.4 178.7 478.6 177.85
M 420.5 183.85
L 419.05 184.2 412.35 187.2 412.35 187.9 417.95 190.55 418.65 189.8 420.5 190.55 423.85 189.05 426.4 188.3 426.4 185.7 424.55 185.35 424.55 184.6 420.5 183.85
M 423.1 184.95
L 424.25 185.35 423.85 186.45 422.75 186.85 423.1 184.95
M 436.85 171.25
L 436.85 172
Q 441 173.85 445.75 173.85
L 445.75 174.55 447.25 175.7 446.85 177.2 448 177.2 448.3 179.45 448.3 180.9 447.25 180.9 446.5 179 445.35 179 444.65 179.75 444.6 179.75 444.6 179.8 442.8 181.65 441.7 181.65 441.7 180.9 437.25 182 438.35 183.85 439.85 184.55 439.85 184.6 439.95 184.6 443.15 186.1 444.3 185.7 445.35 186.1 446.1 187.9 445.75 189.05 445.75 190.15 446.5 190.15 447.25 192.05 449.45 192.75 449.45 193.5
Q 445.35 194.25 441.3 195.4
L 440.25 197.6 439.5 197.6 440.55 194.65 437.25 195.4 437.25 196.15 438.75 196.45 438.35 200.2 437.6 200.2 437.6 200.9 436.15 201.35 438 203.55 441 204.65 441 205.35 438 204.65 437.25 204.65 437.25 205.35 438.75 206.1 438.75 208 437.6 208 437.25 206.5 435.4 205.75 435.05 206.85 435.05 207.6 436.85 207.6 436.85 208.35 438 208.35 438 209.5 435.8 209.05 434.65 209.05 435.05 210.55 434.65 212.05 434.65 212.8 435.8 212.45 436.55 212.45 436.15 213.5 435.05 213.95 435.05 214.65 437.6 215
Q 439.85 215.4 441.7 214.25
L 442.8 214.65 445 214.25 446.1 214.65 448 214.65 449.8 212.05 450.9 212.45 452.05 215 453.5 213.2 454.6 213.2 456.8 215.75 458.65 216.15 463.1 214.25 463.5 213.2 464.55 213.2 465.65 210.95 464.95 208.75
Q 462.75 207.6 463.5 204.65
L 462 203.55 462 202.8 463.5 203.15 462 200.6 462 199.85 463.1 198.7 462.75 197.6 457.2 196.15 453.85 197.6 453.1 197.6 453.1 196.15 452.05 196.45 451.3 196.15 449.8 195.75 447.6 196.15 446.1 195 447.25 194.25 449.8 194.25 451.3 192.75 452.05 192.75 452.05 193.85 453.5 193.5 453.5 192.35 454.25 192.35 454.25 191.6 456.8 191.3 457.9 186.45 459.8 185.35 462 184.95 462 182.75 460.1 181.25 457.9 181.65 456.8 181.25 455.75 181.65 454.6 181.65
Q 453.1 179.75 453.5 177.2
L 452.75 177.55 449.8 175 449.8 174.25 451.6 173.5 452.75 173.5 452.75 174.55 457.2 173.1 459.05 173.85 462 173.1 464.55 174.25 466.05 174.25 467.55 172.35 467.1 171.6 466.8 172.35 464.95 169.8 462 170.55 460.1 170.15 458.3 170.55 456.5 169.4 455 169.8 453.85 169.4 453.1 169.4 453.1 170.15 448 168.65
Q 442.4 169.8 436.85 171.25
M 443.1 197.8
L 443.15 197.6 443.9 197.6 443.9 196.9 444.6 196.9 443.55 200.2 443.55 200.9 442.4 200.9 443.05 198.05 443.25 198.05 443.1 197.8
M 450.9 177.95
L 453.1 178.3 453.1 179.45 450.9 179.45 450.9 177.95
M 450.15 173.85
L 448 173.85 448.3 172.35 450.15 173.85
M 450.15 180.9
L 449.45 180.9 450.15 179.75 450.15 180.9
M 454.25 191.3
L 453.5 191.3 453.5 190.15 454.25 190.15 454.25 191.3
M 463.1 206.1
L 462 206.1 462 205.05 463.1 205.05 463.1 206.1
M 457.55 201.35
L 456.8 207.6 452.75 209.8 449.45 209.05 448.3 209.5 447.25 208.35 447.25 209.05 445.75 209.5 443.9 209.5 443.9 207.6 445.75 208 445.75 206.85 444.6 206.85 445.35 205.05 447.6 203.15 445.35 203.15 444.6 204.3 443.9 204.3 443.55 202.8 444.3 201.35 445 201.35 445.35 202.05 448 200.6 449.8 200.9 450.9 200.9 450.9 199.85 455.35 200.6 457.55 201.35
M 448.3 210.95
L 448.3 212.45 446.85 212.45 447.6 210.95 448.3 210.95
M 448 213.5
L 448 214.25 446.85 214.25 446.85 213.2 448 213.5
M 442.8 202.4
L 442.8 203.55 439.5 203.55 440.55 200.6 442.8 202.4
M 439.1 202.05
L 438.35 202.05 438.35 201.35 439.1 201.35 439.1 202.05
M 442.05 206.5
L 441 206.5 442.4 203.9 442.05 205.05 442.05 206.5
M 430.85 170.85
L 430.85 170.15 429.35 171.25 427.85 169.4 423.5 168.3 423.1 167.15 420.5 167.15
Q 417.2 168.65 415 170.85
L 416.1 172.75 417.2 172.35 417.95 172.35 417.95 173.1 419.8 173.5 420.1 174.55
Q 421.6 175.7 423.85 175.3
L 424.25 176.45 425.7 176.8 427.55 176.8 428.25 175.3 431.25 174.55 431.25 173.85 429.75 173.85 430.85 170.85
M 353.4 177.7
L 354.15 177.4 354.15 176.25 353 176.25 353.4 177.7
M 332.6 191.2
L 333.5 191.2 333.5 192.1 335.2 191.5 335.2 190.9
Q 333.8 191.2 332.6 190.3
L 331.75 190.65 331.45 191.5 330.9 191.5 330.35 192.1 330.6 194.4
Q 332.6 195 334.65 195.6
L 334.65 196.2 335.8 195.85 337.5 196.75 337.8 196.2 338.95 195.3 338.1 194.7 338.4 193.5 338.1 191.8 336.1 192.1 336.65 192.9 336.65 194.1 336.1 194.1 336.1 193.5 331.75 192.9 332.6 191.2
M 337.8 193.5
L 336.9 193.5 336.9 192.7 337.8 192.7 337.8 193.5
M 333.5 171.95
L 333.2 171.1 333.5 170.2 333.2 169.35 332 169.6 328.9 169 328 169 326.85 173.7
Q 327.15 175.15 326 175.75
L 325.4 178.05 325.7 179 325.1 179.85
Q 325.4 181.25 323.95 181.6
L 324.25 183.95 323.95 184.8 324.25 187.4 325.7 188.6 328.6 187.4 328.9 186.55 329.75 186.55 330.35 181.85 332.35 181.6 332.6 179.85 334.3 181.6 336.1 181 337.8 181.25 340.1 181 340.7 179.55 342.4 179.85 343 181 343.6 181.25 344.15 183.05 344.15 183.6
Q 343.3 187.1 342.15 190.65
L 342.75 192.7 342.15 193.85 342.4 195 342.4 195.85 341.25 195.85 341.25 199.65 340.4 199.65 340.1 200.55 341.25 201.15 341.25 201.75 339.55 201.95 338.4 206.95 338.95 206.95 338.95 207.85
Q 332.9 209 327.4 211.05
L 327.4 212.45 330.6 213.4 330.9 214.55 331.45 214.8 331.75 214.55 332.35 213.05 334.9 213.65 334.9 214.55 338.1 213.05 338.95 213.4 338.95 212.2 339.8 212.2 340.4 213.4 341.8 213.05 342.75 210.45 345.3 209.85 345.3 209.25 343.6 209.25
Q 343.3 207.55 344.15 206.35
L 345 206.65 345.6 205.15 346.2 205.15 346.2 205.75 347.3 205.75 346.45 204.95 345.9 203.45 347.3 202.3 346.2 202.3 344.7 201.95 344.7 200.8 345.9 200.55 346.7 200.8 347.3 200.8 347.3 199.95 346.2 199.65 346.2 198.8 347.9 198.2 347.65 196.45 347.9 195.6 347.9 194.7 348.75 194.7 347.3 192.1 347.3 189.7 347.9 189.7 347.9 188.3 350.2 186.8 350.2 186.25 349.3 186.8 348.75 186.8 348.75 185.95 349.65 185.4 349.65 184.5 347.9 183.05 347.9 182.2 349.05 182.75
Q 348.75 181 350.2 179.85
L 349.65 179.55 349.3 180.7 348.2 180.7 348.2 179.85 349.65 178.65 349.65 178.05 348.75 178.05 348.2 176.35 347.3 176.35 346.7 175.45 345.9 175.75 344.7 175.15 342.15 176.65 341 176.35 339.8 177.25 338.7 176.9 336.65 177.5 335.2 179.25 334.65 179.25 334.9 178.4 334.05 175.45 332.9 174.85 333.5 171.95
M 338.4 179
L 337.8 179 337.8 178.4 338.4 179
M 344.45 175.75
L 345.3 176.05 344.45 176.35 344.45 175.75
M 347.9 179
L 347.3 179 347.3 178.4 347.9 178.4 347.9 179
M 347.3 188.6
L 346.45 188.9 346.7 187.7 347.3 187.7 347.3 188.6
M 345 192.7
L 345 192.1 347.3 193.25 345 192.7
M 345.6 196.75
L 345.6 195.6 346.45 195.85 347.05 197.05 345.6 196.75
M 345.6 198.45
L 345 199.05 344.15 198.8 344.15 197.9 345.6 198.45
M 340.1 204
L 341.25 204 341.25 204.95 340.1 204.55 340.1 204
M 341 203.75
L 341 202.3 341.8 203.45 341 203.75
M 362.35 168.4
Q 360.85 169.15 360.85 171.35
L 361.25 172.5 362.35 172.85 362.35 174.35 361.25 174.35 361.25 175.05 362 175.05 362 176.2 360.85 175.8 359.7 175.8 360.85 176.55 360.85 177.7 360.1 178.05 362 177.3 363.1 177.3 363.1 177.7 363.4 177.6 362 182.15 360.85 182.5 363.5 183.65 363.85 184.7 366.85 185.1 367.25 186.2 370.25 187.65 373.25 186.2 379.6 188.05 379.25 189.55 379.6 190.65 378.5 199.2 373.6 197.7 371.4 198.05 370.25 197.7 369.5 198.05 365.4 196.95 361.6 197.3
Q 362.35 198.85 364.95 198.45
L 367.25 198.45 367.25 199.6 369.5 200.35 370.95 199.6 372.45 200.35
Q 373.6 202.55 376.65 202.15
L 379.6 203.3 380 205.55 380 206.25 379.25 206.25 378.85 207 379.25 208.1
Q 378.85 211.45 378.1 214.4
L 374.75 213.7 372.1 214.4 370.65 213.7
Q 364.95 213.25 360.45 214.75
L 360.85 217.4 362.35 217.4 363.85 218.85 364.65 218.85 364.65 217.4 367.6 219.95 368.35 218.15 369.5 218.45 370.25 218.45 370.25 217.7 372.85 218.45 372.85 219.2 374 219.2 374.35 217.7 376.65 218.45 377.7 218.45 377.7 217.4 380.35 218.45 382.95 218.15
Q 386.75 217.7 390.1 218.85
L 392.35 217.7 394.6 218.45 396.1 218.45 396.1 217.4 398 217.4 398 218.15 399.15 217.4 401.35 218.45 400.95 217.4 401.35 215.5 402.5 215.9 403.6 217 404.75 217 405.9 214.4
Q 403.6 214.4 401.75 212.95 398.75 213.25 395.75 214 393.15 214 391.25 212.55
L 391.6 211.45 391.6 210.7 390.1 210.3 390.1 209.55 391.25 209.95 392.35 209.25 391.6 208.85
Q 391.6 207.35 393.5 207.75
L 393.9 205.55 397.6 207 400.2 205.85 402.1 206.25 402.85 206.25 404 204.8 404 204.05 403.25 204.05 404.75 201.1 404.75 200.35 404 200.65 400.6 199.95 397.6 201.1 393.15 200.65 391.25 198.45 391.25 196.55 392.75 196.95 392.35 196.25 392.35 195.5 393.15 195.5 392.75 194.35 392.75 193.6 393.9 193.6 393.15 192.1 393.5 190.3 392 187.65 392 186.2 393.5 187.35 396.1 186.6 397.25 186.95 398 186.95 398 185.85 399.9 186.6 402.1 185.85 402.1 184.7 400.6 184.7 400.6 183.65 399.15 183.2 398.35 182.15 396.85 182.15 395.75 180.65 393.5 181 390.85 180.25 390.5 178.75 390.5 177.3 389.7 177.3 390.85 175.8 390.85 174.75 388.95 175.05 387.9 175.05 387.9 173.6 389.7 172.85 389.7 172.1 388.65 172.1 388.65 171.75 388.5 171.75 388.2 171.05 388.2 169.9 390.1 170.6
Q 386.45 165.7 381.1 162.8
L 378.85 163.55 379.25 174.35 380.75 174.75 380.75 176.2 379.6 176.2 379.25 181.75 377.7 182.15 371.7 181.4 369.9 171.75
Q 366.45 169.55 362.35 168.4
M 362.75 171.75
L 361.25 172.1 361.25 171.05 362.75 171.75
M 384.1 171.75
L 383.35 171.75 383.35 171.05 384.1 171.05 384.1 171.75
M 384.5 166.9
L 383.35 166.6 383.35 165.85 384.5 166.9
M 382.95 173.6
L 382.95 174.75 381.9 174.75 381.9 173.6 382.95 173.6
M 384.5 176.95
L 384.5 177.7 383.7 177.7 383.7 176.95 384.5 176.95
M 382.65 197.3
L 381.5 197.7 381.5 196.95 382.65 197.3
M 387.15 179.2
L 388.2 179.2 388.2 180.25 387.15 180.25 387.15 179.2
M 387.5 176.2
L 386.35 176.2 386.35 175.05 387.5 175.05 387.5 176.2
M 389.7 181.75
L 388.65 181.75 388.65 180.65 389.7 180.65 389.7 181.75
M 391.6 189.15
L 390.5 188.8 390.5 188.05 391.6 188.4 391.6 189.15
M 385.6 191.4
L 385.6 190.65 387.15 190.65 387.15 192.1 385.6 191.4
M 389.35 187.65
L 388.2 187.65 388.65 186.6 389.7 186.6 389.35 187.65
M 401.75 203.65
L 400.6 204.05 400.6 203.3 401.75 203.65
M 390.85 198.85
L 389.35 199.2 388.95 197.7 390.85 198.85
M 489.75 178.15
L 488.45 177.7 487.65 177.85 487.15 177.7 486.35 177.85 485.65 179
Q 484.65 180.65 484.05 182.3
L 483.7 182.3 483.5 183.15 482.9 183.6 482.55 184.75 482.05 185.1 481.4 186.1 481.4 187.25 482.9 187.9 485.5 187.25 485.65 186.6 486.8 185.9 486.5 185.1 486.8 184.45 487.15 184.45 487.15 184.95 487.8 185.1 487.45 184.3 487.8 183.45 487.3 183.45 487.95 182.3 489.1 182.15 489.6 179.85 490.1 180 489.75 178.15
M 488.45 182
L 487.95 182 488.1 181.45 488.45 181.45 488.45 182 Z"/>

<path fill="#57625C" stroke="none" d="
M 280.75 183.85
L 278.6 182.75 277.5 182.75 276 187.9 274.95 187.9 274.6 189.05 273.85 189.05 273.55 190.1 272.4 190.85 273.15 190.85 273.15 191.95 270.55 192.35 269.9 194.15 268.4 195.65 268.75 196.8
Q 270.95 196.4 272.05 197.85
L 276.75 196.8 278.25 194.55 278.25 193.8 278.9 193.4 280.75 190.1 281.8 189.35 282.55 187.9 282.55 186.4 281.15 186.4 280.75 183.85
M 266.6 161.7
L 265.85 161.7 264.75 159.5 262.6 159.85 262.6 160.6 263.35 160.6 263.35 162.1 262.2 162.4 261.85 163.55 261.85 164.3 263.35 164.3 263.35 167.25 262.2 167.6 262.6 169.45 262.2 170.55
Q 255.35 172.4 248.45 174.6
L 248.45 175.75 249.9 175
Q 251.7 174.6 252.8 176.45
L 252.8 177.2 251.35 176.45 250.3 176.45 250.3 177.2 249.55 177.6 251.35 178.3 252.8 177.9 254.25 178.3 255.65 177.9 257.5 178.3 257.15 181.3 257.5 182.35 258.65 182.35 257.15 184.2 257.9 184.2 257.15 186.4 256.4 186.4 256.4 187.55 258.25 187.55 258.25 188.65 256.1 189.05 256.1 189.8 259 189.05 259.7 189.05 259.7 190.1 258.25 191.25 256.4 190.85 255.65 190.85 256.1 192.7 257.15 192.35 257.9 192.35 256.4 193.8 256.4 194.55 257.15 194.55 257.15 196.05 253.9 196.05 253.2 193.4
Q 250.3 189.05 245.9 186.8
L 244.4 187.15
Q 245.15 191.95 247.7 196.4
L 248.45 196.8 250.3 202.65 250.6 201.15 252.1 201.15 252.45 203.05 253.9 203.4 252.8 206.35 248.45 207.1 248.05 208.15 246.25 207.45
Q 244.1 208.6 241.2 208.15
L 241.5 209.3
Q 245.15 213.35 250.6 213.35
L 250.6 218.15 249.9 218.15 249.9 219.65 249.15 219.65 247.7 223.65 246.25 223.65 245.55 225.9 245.55 227.05 243.35 227.8 243 229.6
Q 239.05 229.95 235.4 231.85
L 236.05 234.05
Q 240.45 234.4 244.85 235.55 244.85 233.65 246.25 232.55
L 247 232.55 247 235.55 248.45 235.15
Q 249.7 233.3 251.35 232.15
L 253.5 232.55 253.5 233.65 255.35 232.55 255 230.7 253.5 229.95 253.5 228.85 254.6 229.25 257.15 229.25 256.8 228.5 256.8 226.65 257.9 226.65 258.65 224.1
Q 261.55 225.15 264.05 226.65
L 264.45 228.5 266.25 228.85 266.6 229.95
Q 269.5 232.9 272.8 234.8
L 276.45 232.55 276.45 231.4 274.6 231.4 273.15 227.8 271.7 227.4 271.3 226.3
Q 268.75 224.1 265.85 223.35
L 265.15 221.5 264.05 221.1 263.7 219.65 263.7 217.05 264.75 216.35 264.05 214.45 264.45 213.35 268.75 211.9 269.15 210.8 272.4 211.15 274.95 210.8 276 211.15
Q 278.6 210.4 280.75 209.65
L 281.5 210.05 282.55 209.65 282.2 208.6 282.2 207.85 284.4 207.85 284.05 206.35 284.4 203.4 285.1 203.05 284.4 202.65 282.55 199.35 281.5 199.35 278.25 201.9 278.25 202.65 276.75 201.9 275.7 202.3 274.95 204.55 273.55 204.15 273.15 202.3 270.55 203.4 270.55 204.15 268.4 205.6 267.65 205.6 267.65 204.15 266.25 203.4 265.15 203.8 264.05 203.8 265.15 202.65 264.75 201.15 265.85 195.3 265.15 192.7 265.5 190.5 264.05 190.5 264.05 189.05 265.85 189.35 266.6 189.35 266.25 187.9 266.6 182.05 267.65 181.6 268.4 179.05 272.8 176.85 272.8 175.75 274.6 175 274.95 174.3 274.95 170.55 272.05 170.9 272.05 172.4
Q 269.9 172.4 268.05 170.9
L 268.4 170.15 268.4 169.45 269.5 169.45 269.5 168.7 267.35 168.7 267 165.4 266.25 165.4 265.85 164.3 265.85 163.55 266.6 163.55 266.6 161.7
M 264.75 162.1
L 264.05 162.1 264.05 160.95 265.15 160.95 264.75 162.1
M 264.75 168
L 264.45 169.1 263.7 169.1 264.05 168 264.75 168
M 267.65 170.9
L 266.6 171.3 265.15 171.65 265.5 169.45 267.65 169.85 267.65 170.9
M 260.05 171.3
L 261.85 172.05 260.05 172.4 260.05 171.3
M 262.2 184.95
L 259.7 185.35 261.15 183.85 262.6 183.85 262.2 184.95
M 262.95 187.55
L 261.85 187.9 261.85 187.15 262.95 187.55
M 256.1 196.8
L 257.5 197.1 256.4 198.6 255.35 198.6 256.1 196.8
M 280.75 204.15
L 281.8 204.15 281.8 205.3 280.75 205.3 280.75 204.15
M 276.75 208.9
L 277.85 210.05 276.75 210.4 276.75 208.9
M 279.65 208.15
L 279.65 209.3 278.6 209.3 278.6 208.15 279.65 208.15
M 266.6 206.35
L 265.5 206 265.85 204.55 267 204.85 266.6 206.35
M 265.85 211.9
L 265.15 211.9 265.15 211.15 265.85 211.9
M 257.15 203.05
L 256.1 203.05 256.1 202.3 257.15 203.05
M 261.85 216.65
L 261.85 215.9 263.35 216.35 261.85 216.65
M 255 225.9
L 253.9 225.9 254.25 224.8 255 224.8 255 225.9
M 244.1 233.65
L 243 233.65 243 232.55 244.1 232.55 244.1 233.65
M 219.75 188.65
L 219.4 189.35 217.2 190.85 217.2 192.35 216.1 192.7 216.45 193.4 216.1 194.15 216.1 197.95
Q 219.5 196.55 221.7 194.4 222.35 193.75 223 193.1
L 223 195.3 224.15 195.3 224.15 196.8 222.65 196.8 223 200.85 222.3 202.3 222.3 205.6 223.4 206.35 222.65 208.6
Q 224.35 212.75 223.4 217.05
L 226.65 218.55 226.3 217.8 226.65 216.65 227.35 216.65 227.35 215.9 228.45 215.6 229.55 215.9 231.75 214.85 231.35 214.1 231.35 213.35 229.95 213.05 229.95 211.9 231 211.9 231.35 210.8 232.5 210.8 232.1 209.3 232.1 206.35 232.85 206.35 231.75 201.9 230.65 200.85 230.65 198.6 231.75 199 232.5 199 232.5 197.85 231 197.55
Q 231 196.05 232.85 196.4
L 231.75 193.4 232.5 191.25 232.1 190.1 232.5 189.05 232.1 187.9 229.2 189.05 230.25 190.1 229.95 191.25 228.85 191.25 228.1 190.1 225.55 190.85 225.2 191.95 224.15 191.95 224.15 190.85 229.55 185.65
Q 232.1 183.1 233.15 180.15
L 233.9 180.15 236.05 177.6 236.05 176.85 228.85 179.4 219.75 188.65
M 227.05 197.1
L 225.95 197.1 225.95 195.65 227.05 196.05 227.05 197.1
M 227.05 210.05
L 228.1 210.05 227.8 211.6 227.7 211.4 227.35 211.4 227.35 211.8 227.7 211.9 227.05 211.9 227.05 210.05 Z"/>
</g>
</defs>

<g transform="matrix( 1, 0, 0, 1, 0,0) ">
<use xlink:href="#Layer0_0_FILL"/>
</g>
</svg>
